<?xml version="1.0" encoding="UTF-8"?>
<svg xmlns="http://www.w3.org/2000/svg" xmlns:xlink="http://www.w3.org/1999/xlink" width="64px" height="64px" viewBox="0 0 64 64" version="1.1">
<g id="surface1">
<path style=" stroke:none;fill-rule:nonzero;fill:rgb(0%,0%,0.784314%);fill-opacity:1;" d="M 32.78125 12.695312 C 23.382812 12.695312 15.738281 20.339844 15.738281 29.738281 C 15.738281 33.585938 17 37.222656 19.386719 40.25 C 19.84375 40.828125 20.335938 41.402344 20.8125 41.953125 C 22.234375 43.601562 23.578125 45.160156 24.054688 46.914062 C 24.066406 46.949219 24.15625 47.320312 24.140625 48.570312 L 24.140625 48.753906 C 24.125 49.769531 24.105469 51.160156 25.136719 52.207031 C 25.839844 52.921875 26.828125 53.269531 28.15625 53.269531 L 37.371094 53.269531 C 38.804688 53.269531 39.835938 52.917969 40.523438 52.195312 C 41.453125 51.21875 41.390625 49.957031 41.351562 49.125 C 41.34375 48.976562 41.335938 48.828125 41.332031 48.679688 C 41.316406 47.425781 41.410156 47.070312 41.414062 47.054688 C 41.902344 45.304688 43.472656 43.457031 44.863281 41.828125 C 45.324219 41.28125 45.761719 40.769531 46.167969 40.253906 C 48.554688 37.226562 49.816406 33.589844 49.816406 29.738281 C 49.816406 20.339844 42.175781 12.695312 32.78125 12.695312 Z M 43.472656 38.125 C 43.105469 38.59375 42.6875 39.082031 42.246094 39.601562 C 40.628906 41.503906 38.796875 43.65625 38.109375 46.140625 C 38.011719 46.492188 37.882812 47.144531 37.902344 48.71875 C 37.902344 48.910156 37.914062 49.101562 37.921875 49.292969 C 37.929688 49.441406 37.9375 49.640625 37.9375 49.796875 C 37.816406 49.816406 37.636719 49.835938 37.371094 49.835938 L 28.15625 49.835938 C 27.863281 49.835938 27.695312 49.804688 27.605469 49.78125 C 27.5625 49.558594 27.566406 49.09375 27.570312 48.800781 L 27.574219 48.609375 C 27.589844 47.023438 27.464844 46.367188 27.367188 46.011719 C 26.683594 43.507812 24.945312 41.492188 23.414062 39.710938 C 22.941406 39.164062 22.492188 38.644531 22.082031 38.125 C 20.179688 35.707031 19.171875 32.808594 19.171875 29.738281 C 19.171875 22.234375 25.277344 16.128906 32.78125 16.128906 C 40.28125 16.128906 46.386719 22.234375 46.386719 29.738281 C 46.386719 32.808594 45.378906 35.710938 43.472656 38.125 Z M 43.472656 38.125 "/>
<path style=" stroke:none;fill-rule:nonzero;fill:rgb(0%,0%,0.784314%);fill-opacity:1;" d="M 37.015625 54.820312 L 28.539062 54.820312 C 26.710938 54.820312 25.222656 56.308594 25.222656 58.136719 L 25.222656 60.683594 C 25.222656 62.511719 26.710938 64 28.539062 64 L 37.015625 64 C 38.847656 64 40.335938 62.511719 40.335938 60.683594 L 40.335938 58.136719 C 40.335938 56.308594 38.847656 54.820312 37.015625 54.820312 Z M 36.902344 60.566406 L 28.65625 60.566406 L 28.65625 58.253906 L 36.902344 58.253906 Z M 36.902344 60.566406 "/>
<path style=" stroke:none;fill-rule:nonzero;fill:rgb(0%,0%,0.784314%);fill-opacity:1;" d="M 32.777344 10.476562 C 33.726562 10.476562 34.496094 9.707031 34.496094 8.757812 L 34.496094 1.714844 C 34.496094 0.769531 33.726562 0 32.777344 0 C 31.832031 0 31.0625 0.769531 31.0625 1.714844 L 31.0625 8.757812 C 31.0625 9.707031 31.832031 10.476562 32.777344 10.476562 Z M 32.777344 10.476562 "/>
<path style=" stroke:none;fill-rule:nonzero;fill:rgb(0%,0%,0.784314%);fill-opacity:1;" d="M 55.359375 7.917969 C 54.703125 7.230469 53.617188 7.207031 52.933594 7.859375 L 47.722656 12.832031 C 47.035156 13.488281 47.011719 14.574219 47.664062 15.257812 C 48 15.613281 48.453125 15.789062 48.90625 15.789062 C 49.332031 15.789062 49.757812 15.632812 50.089844 15.316406 L 55.300781 10.34375 C 55.988281 9.6875 56.011719 8.601562 55.359375 7.917969 Z M 55.359375 7.917969 "/>
<path style=" stroke:none;fill-rule:nonzero;fill:rgb(0%,0%,0.784314%);fill-opacity:1;" d="M 60.472656 25.078125 L 53.765625 25.089844 C 52.816406 25.09375 52.046875 25.863281 52.050781 26.808594 C 52.050781 27.757812 52.820312 28.523438 53.765625 28.523438 C 53.765625 28.523438 53.769531 28.523438 53.769531 28.523438 L 60.476562 28.511719 C 61.425781 28.511719 62.191406 27.742188 62.191406 26.792969 C 62.1875 25.847656 61.421875 25.078125 60.472656 25.078125 Z M 60.472656 25.078125 "/>
<path style=" stroke:none;fill-rule:nonzero;fill:rgb(0%,0%,0.784314%);fill-opacity:1;" d="M 17.023438 14.800781 C 17.675781 14.117188 17.652344 13.03125 16.964844 12.375 L 11.753906 7.402344 C 11.070312 6.75 9.984375 6.773438 9.328125 7.460938 C 8.675781 8.144531 8.699219 9.230469 9.386719 9.886719 L 14.59375 14.859375 C 14.925781 15.175781 15.355469 15.332031 15.78125 15.332031 C 16.234375 15.332031 16.683594 15.15625 17.023438 14.800781 Z M 17.023438 14.800781 "/>
<path style=" stroke:none;fill-rule:nonzero;fill:rgb(0%,0%,0.784314%);fill-opacity:1;" d="M 10.234375 25.089844 L 3.527344 25.078125 C 2.578125 25.078125 1.8125 25.847656 1.808594 26.792969 C 1.808594 27.742188 2.574219 28.511719 3.523438 28.511719 L 10.230469 28.523438 C 10.230469 28.523438 10.230469 28.523438 10.234375 28.523438 C 11.179688 28.523438 11.949219 27.757812 11.949219 26.808594 C 11.949219 25.863281 11.183594 25.09375 10.234375 25.089844 Z M 10.234375 25.089844 "/>
</g>
</svg>
