<?xml version="1.0" standalone="no"?>
<!DOCTYPE svg PUBLIC "-//W3C//DTD SVG 20010904//EN"
 "http://www.w3.org/TR/2001/REC-SVG-20010904/DTD/svg10.dtd">
<svg version="1.0" xmlns="http://www.w3.org/2000/svg"
 width="500.000000pt" height="500.000000pt" viewBox="0 0 500.000000 500.000000"
 preserveAspectRatio="xMidYMid meet">

<g transform="translate(0.000000,500.000000) scale(0.100000,-0.100000)"
fill="#000000" stroke="none">
<path d="M2333 4750 c-709 -55 -1346 -437 -1736 -1042 -384 -595 -459 -1377
-197 -2040 268 -675 841 -1180 1546 -1363 336 -87 768 -88 1110 -1 498 126
939 419 1248 826 242 320 387 673 441 1074 26 193 17 520 -19 709 -115 603
-464 1125 -981 1472 -123 83 -365 202 -505 249 -284 96 -616 138 -907 116z
m405 -141 c577 -63 1113 -371 1468 -841 396 -526 522 -1208 344 -1852 -198
-711 -790 -1292 -1505 -1476 -204 -52 -310 -65 -545 -65 -235 0 -333 12 -536
66 -605 158 -1110 578 -1384 1152 -193 403 -250 903 -154 1347 189 878 910
1543 1804 1665 119 16 379 18 508 4z"/>
<path d="M1808 3675 c-77 -52 -145 -196 -169 -354 -17 -118 -7 -335 21 -429
38 -134 90 -219 158 -259 113 -67 232 24 296 227 96 303 25 704 -143 817 -47
32 -114 31 -163 -2z"/>
<path d="M3054 3690 c-65 -26 -138 -144 -175 -285 -32 -117 -32 -363 -1 -487
48 -193 139 -308 242 -308 96 0 189 123 236 310 26 103 27 362 1 470 -31 132
-96 249 -162 290 -34 21 -102 26 -141 10z"/>
<path d="M1119 2316 c-14 -7 -90 -61 -167 -120 -146 -110 -165 -133 -142 -176
13 -25 53 -42 77 -33 10 4 32 17 49 30 l31 23 17 -90 c110 -603 605 -1071
1247 -1181 107 -18 150 -21 314 -16 214 6 315 23 486 83 378 132 690 400 866
747 45 91 98 251 118 362 10 50 19 92 21 94 2 2 18 -7 36 -21 45 -33 64 -39
93 -28 29 11 46 48 38 79 -5 18 -291 243 -327 257 -20 8 -64 -13 -76 -36 -19
-35 -3 -67 50 -107 46 -34 50 -41 50 -79 0 -109 -50 -300 -115 -442 -81 -174
-259 -387 -424 -505 -350 -252 -800 -337 -1224 -231 -270 68 -488 194 -684
397 -179 185 -296 411 -338 656 -25 144 -24 154 39 201 30 22 56 50 59 61 8
32 -10 68 -38 79 -32 12 -25 13 -56 -4z"/>
</g>
</svg>
