<svg width="1171" height="612" viewBox="0 0 1171 612" fill="none" xmlns="http://www.w3.org/2000/svg">
<path d="M102.02 611.195C107.998 614.373 114.304 607.491 110.644 601.795C90.778 570.876 71.966 518.848 101.938 451.843C151.92 340.106 182.334 282.234 182.334 282.234C182.334 282.234 198.511 349.77 242.363 409.819C284.568 467.612 307.669 540.297 270.427 600.848C266.932 606.531 273.095 613.236 279.034 610.197C325.134 586.615 376.84 539.312 382.674 445.18C384.825 416.416 381.599 376.146 365.468 325.329C344.727 260.923 319.229 230.87 304.476 217.964C300.063 214.103 293.2 217.525 293.562 223.377C297.861 292.871 271.717 310.506 256.836 270.763C250.893 254.889 247.427 227.433 247.427 193.997C247.427 138.332 231.277 81.03 195.672 34.466C186.413 22.357 175.579 11.042 163.149 1.393C158.649 -2.101 152.126 1.411 152.538 7.093C155.272 44.829 152.795 152.978 57.914 282.182C-28.115 402.033 5.22101 494.078 17.05 519.008C39.666 566.767 71.212 594.814 102.02 611.195Z" fill="black"/>
<path d="M496.29 611.196C502.268 614.374 508.574 607.492 504.914 601.796C485.048 570.877 466.236 518.849 496.208 451.844C546.19 340.107 576.604 282.235 576.604 282.235C576.604 282.235 592.781 349.771 636.633 409.82C678.838 467.613 701.939 540.298 664.697 600.849C661.202 606.532 667.365 613.237 673.304 610.198C719.404 586.616 771.11 539.313 776.944 445.181C779.095 416.417 775.869 376.147 759.738 325.33C738.997 260.924 713.499 230.871 698.746 217.965C694.333 214.104 687.47 217.526 687.832 223.378C692.131 292.872 665.987 310.507 651.106 270.764C645.163 254.89 641.697 227.434 641.697 193.998C641.697 138.333 625.547 81.0306 589.942 34.4666C580.683 22.3576 569.849 11.0426 557.419 1.39364C552.919 -2.10036 546.396 1.41164 546.808 7.09364C549.542 44.8296 547.065 152.979 452.184 282.183C366.155 402.034 399.491 494.079 411.32 519.009C433.936 566.768 465.482 594.815 496.29 611.196Z" fill="black"/>
<path d="M888.829 611.196C894.807 614.374 901.113 607.492 897.453 601.796C877.587 570.877 858.775 518.849 888.747 451.844C938.729 340.107 969.143 282.235 969.143 282.235C969.143 282.235 985.32 349.771 1029.17 409.82C1071.38 467.613 1094.48 540.298 1057.24 600.849C1053.74 606.532 1059.9 613.237 1065.84 610.198C1111.94 586.616 1163.65 539.313 1169.48 445.181C1171.63 416.417 1168.41 376.147 1152.28 325.33C1131.54 260.924 1106.04 230.871 1091.29 217.965C1086.87 214.104 1080.01 217.526 1080.37 223.378C1084.67 292.872 1058.53 310.507 1043.65 270.764C1037.7 254.89 1034.24 227.434 1034.24 193.998C1034.24 138.333 1018.09 81.0306 982.481 34.4666C973.222 22.3576 962.388 11.0426 949.958 1.39364C945.458 -2.10036 938.935 1.41164 939.347 7.09364C942.081 44.8296 939.604 152.979 844.723 282.183C758.694 402.034 792.03 494.079 803.859 519.009C826.475 566.768 858.021 594.815 888.829 611.196Z" fill="black"/>
</svg>
