<?xml version="1.0" standalone="no"?>
<!DOCTYPE svg PUBLIC "-//W3C//DTD SVG 20010904//EN"
 "http://www.w3.org/TR/2001/REC-SVG-20010904/DTD/svg10.dtd">
<svg version="1.0" xmlns="http://www.w3.org/2000/svg"
 width="512.000000pt" height="512.000000pt" viewBox="0 0 512.000000 512.000000"
 preserveAspectRatio="xMidYMid meet">

<g transform="translate(0.000000,512.000000) scale(0.100000,-0.100000)"
fill="#000000" stroke="none">
<path d="M2310 4795 c-388 -42 -771 -193 -1087 -428 -137 -102 -366 -330 -469
-470 -432 -577 -557 -1341 -335 -2025 77 -236 190 -455 334 -649 102 -137 330
-366 470 -469 577 -432 1341 -557 2025 -335 237 78 457 191 649 335 140 103
368 332 470 469 431 580 556 1341 334 2025 -78 237 -191 457 -335 649 -103
140 -332 368 -469 470 -454 337 -1021 490 -1587 428z m545 -205 c820 -124
1489 -730 1691 -1529 48 -192 59 -281 59 -501 0 -220 -11 -309 -59 -501 -184
-729 -756 -1301 -1485 -1485 -192 -48 -281 -59 -501 -59 -220 0 -309 11 -501
59 -367 93 -701 285 -961 554 -265 274 -434 575 -524 931 -48 192 -59 281 -59
501 0 220 11 309 59 501 93 367 285 701 554 961 274 265 575 434 931 524 118
30 168 38 331 58 60 7 391 -3 465 -14z"/>
<path d="M1732 3421 c-144 -50 -225 -196 -188 -341 36 -141 145 -226 287 -224
195 1 330 187 275 379 -14 46 -29 69 -74 114 -88 87 -187 111 -300 72z"/>
<path d="M3195 3423 c-75 -26 -158 -112 -181 -188 -55 -192 80 -378 275 -379
142 -2 251 83 287 224 26 103 -10 219 -88 286 -78 65 -199 89 -293 57z"/>
<path d="M2375 2214 c-189 -19 -427 -72 -582 -130 -215 -80 -395 -177 -573
-309 -110 -82 -133 -119 -110 -175 28 -69 101 -79 176 -25 345 248 613 364
975 422 142 23 456 23 598 0 362 -58 630 -174 975 -422 60 -44 114 -48 151
-11 60 60 39 119 -70 200 -294 222 -639 368 -1020 432 -86 14 -435 27 -520 18z"/>
</g>
</svg>
